<svg width="19" height="19" viewBox="0 0 19 19" fill="none" xmlns="http://www.w3.org/2000/svg">
<path d="M9.5 6.53125V7.91627" stroke="black" stroke-width="0.6" stroke-miterlimit="10" stroke-linecap="square"/>
<path d="M12.6668 5.93749V4.55207L9.50016 2.57251L6.3335 4.5778V5.93749" stroke="black" stroke-width="0.6" stroke-miterlimit="10" stroke-linecap="square"/>
<path d="M6.3335 4.55206L9.50016 6.53123L12.6668 4.55206" stroke="black" stroke-width="0.6" stroke-miterlimit="10"/>
<path d="M3.95841 9.9948V13.5573L0.791748 11.5781V8.04136L3.95841 6.03607L7.12508 8.01563L3.95841 9.9948ZM3.95841 9.9948L0.791748 8.04136" stroke="black" stroke-width="0.6" stroke-miterlimit="10"/>
<path d="M15.0417 9.9948V13.5573L18.2083 11.5781V8.01563L15.0417 6.03607L11.875 8.04136L15.0417 9.9948ZM15.0417 9.9948L18.2083 8.01563" stroke="black" stroke-width="0.6" stroke-miterlimit="10"/>
<path d="M9.5 13.4583V17.0208" stroke="black" stroke-width="0.6" stroke-miterlimit="10"/>
<path d="M12.6668 11.4791L9.50016 9.49957L6.3335 11.5049V15.0416L9.50016 17.0208L12.6668 15.0416V11.4791Z" stroke="black" stroke-width="0.6" stroke-miterlimit="10"/>
<path d="M6.3335 11.4791L9.50016 13.4583L12.6668 11.4791" stroke="black" stroke-width="0.6" stroke-miterlimit="10"/>
<path d="M9.5 13.4583V17.0208" stroke="black" stroke-width="0.6" stroke-miterlimit="10"/>
</svg>
