<svg xmlns="http://www.w3.org/2000/svg" width="891.29" height="238.23" viewBox="0 0 891.29 238.23">
  <path id="Trazado_1" data-name="Trazado 1" d="M112.86,2.66c74.29,0,106.4-21.09,106.4-67.45s-32.11-67.45-106.4-67.45S6.46-111.15,6.46-64.79,38.57,2.66,112.86,2.66Zm0-33.06c-52.06,0-67.83-9.31-67.83-34.39S60.8-99.18,112.86-99.18c51.87,0,67.07,9.31,67.07,34.39S164.73-30.4,112.86-30.4ZM362.14,0c44.27,0,74.29-14.25,74.29-64.98,0-49.21-29.64-64.6-74.29-64.6H235.98V0ZM274.55-96.52h83.98c26.79,0,38,6.27,38,31.54,0,25.65-11.21,31.92-38,31.92H274.55ZM626.05,0V-30.21H491.72v-22.8H622.44V-77.9H491.72V-99.37H626.05v-30.21H453.15V0Zm57.19,0V-129.58H644.67V0Zm59.09,0V-89.11L854.62,0h43.13V-129.58H859.18v87.59L747.84-129.58H703.76V0Z" transform="translate(-6.46 132.24)" fill="#f2f2f2"/>
  <path id="Trazado_2" data-name="Trazado 2" d="M83.88-15.39c0-13.14-9-15.21-22.05-16.56L27.36-35.64c-10.35-1.17-16.38-2.7-16.38-10.62,0-8.28,5.13-11.52,30.06-11.52A243.9,243.9,0,0,1,80.46-54l.81-4.41a223.575,223.575,0,0,0-39.51-3.87c-27.18,0-35.91,4.32-35.91,16.11,0,11.16,8.55,13.68,21.69,15.03l35.82,3.87c10.08,1.26,15.39,2.7,15.39,11.79C78.75-7.02,73.8-3.6,47.7-3.6A240.786,240.786,0,0,1,7.56-7.56L6.75-2.97C16.92-.81,33.84.9,46.89.9,75.87.9,83.88-3.6,83.88-15.39ZM128.61-56.7V0h5.31V-56.7h37.44v-4.68H91.08v4.68ZM259.02-31.59c0,18.63-11.52,27.81-35.82,27.81-24.21,0-35.82-9.18-35.82-27.81V-61.38h-5.31v30.42C182.07-9.54,197.37.9,223.2.9c25.92,0,41.13-10.44,41.13-31.86V-61.38h-5.31ZM329.49,0c25.29,0,36.45-9.09,36.45-30.78s-11.16-30.6-36.45-30.6H278.55V0ZM283.86-56.7h45.36c22.95,0,31.32,7.47,31.32,25.92,0,18.27-8.37,26.1-31.32,26.1H283.86ZM384.57,0V-61.38h-5.31V0Zm60.21.99c31.68,0,46.89-9.45,46.89-31.68s-15.21-31.68-46.89-31.68-46.89,9.45-46.89,31.68S413.1.99,444.78.99Zm0-4.86c-30.51,0-41.58-8.73-41.58-26.82s11.07-26.82,41.58-26.82,41.49,8.73,41.49,26.82S475.29-3.87,444.78-3.87Z" transform="translate(198.54 237.24)" fill="#f2f2f2"/>
</svg>
