<svg width="1802" height="471" viewBox="0 0 1802 471" fill="none" xmlns="http://www.w3.org/2000/svg">
<path d="M112.263 441.439C76.4914 422.362 48.9434 395.213 29.6124 359.977C10.2749 324.748 0.609375 283.257 0.609375 235.519C0.609375 187.78 10.2749 146.296 29.6124 111.06C48.9434 75.8315 76.4914 48.675 112.263 29.598C148.028 10.521 190.074 0.986084 238.415 0.986084C286.755 0.986084 328.795 10.521 364.567 29.598C400.332 48.675 427.88 75.8315 447.217 111.06C466.548 146.296 476.22 187.78 476.22 235.519C476.22 283.257 466.548 324.748 447.217 359.977C427.88 395.213 400.332 422.362 364.567 441.439C328.795 460.516 286.749 470.051 238.415 470.051C190.081 470.051 148.028 460.516 112.263 441.439ZM306.416 348.099C325.266 338.515 339.718 324.23 349.772 305.259C359.819 286.289 364.85 263.044 364.85 235.526C364.85 208.007 359.819 184.763 349.772 165.792C339.718 146.822 325.266 132.544 306.416 122.952C287.565 113.368 264.896 108.568 238.408 108.568C211.92 108.568 188.961 113.368 170.111 122.952C151.261 132.544 136.855 146.772 126.899 165.636C116.938 184.507 111.967 207.801 111.967 235.526C111.967 263.25 116.944 286.552 126.899 305.416C136.855 324.287 151.261 338.515 170.111 348.099C188.961 357.691 211.729 362.483 238.408 362.483C265.087 362.483 287.565 357.691 306.416 348.099Z" fill="#F6F4F2"/>
<path d="M463.775 11.31H680.406C723.908 11.31 761.845 20.6391 794.233 39.2972C826.613 57.9553 851.508 84.0681 868.91 117.629C886.312 151.196 895.009 189.762 895.009 233.333C895.009 276.904 885.68 318.601 867.027 352.786C848.367 386.978 822.413 413.347 789.163 431.905C755.907 450.464 717.725 459.736 674.612 459.736H463.782V11.31H463.775ZM731.591 336.215C748.703 327.667 761.654 314.951 770.451 298.061C779.247 281.178 783.645 260.12 783.645 234.895C783.645 209.669 779.247 189.293 770.451 172.509C761.648 155.733 748.651 143.117 731.446 134.675C714.236 126.233 693.166 122.009 668.226 122.009H573.974V349.037H668.226C693.357 349.037 714.479 344.763 731.591 336.215Z" fill="#F6F4F2"/>
<path d="M882.556 11.3099H1221.57V122.009H992.754V173.922H1204.45V284.309H992.754V349.037H1221.57V459.736H882.556V11.3099Z" fill="#F6F4F2"/>
<path d="M1250.62 11.3093H1360.82V459.743H1250.62V11.3093Z" fill="#F6F4F2"/>
<path d="M1389.88 11.3099H1507.62L1691.19 283.059V11.3099H1801.39V459.743H1683.36L1500.07 190.812V459.743H1389.88V11.3099Z" fill="#F6F4F2"/>
</svg>
